<?xml version="1.0" encoding="UTF-8" standalone="no"?>
<!DOCTYPE svg PUBLIC "-//W3C//DTD SVG 1.1//EN"
 "http://www.w3.org/Graphics/SVG/1.1/DTD/svg11.dtd">
<!-- Generated by graphviz version 2.43.0 (0)
 -->
<!-- Title: inOrder Pages: 1 -->
<svg width="314pt" height="188pt"
 viewBox="0.00 0.00 314.00 188.00" xmlns="http://www.w3.org/2000/svg" xmlns:xlink="http://www.w3.org/1999/xlink">
<g id="graph0" class="graph" transform="scale(1 1) rotate(0) translate(4 184)">
<title>inOrder</title>
<polygon fill="white" stroke="transparent" points="-4,4 -4,-184 310,-184 310,4 -4,4"/>
<!-- 4 -->
<g id="node1" class="node">
<title>4</title>
<ellipse fill="none" stroke="red" cx="153" cy="-162" rx="18" ry="18"/>
<text text-anchor="middle" x="153" y="-158.5" font-family="Times,serif" font-size="15.00" fill="blue">4</text>
</g>
<!-- 2 -->
<g id="node2" class="node">
<title>2</title>
<ellipse fill="none" stroke="red" cx="72" cy="-90" rx="18" ry="18"/>
<text text-anchor="middle" x="72" y="-86.5" font-family="Times,serif" font-size="15.00" fill="blue">2</text>
</g>
<!-- 4&#45;&gt;2 -->
<g id="edge1" class="edge">
<title>4&#45;&gt;2</title>
<path fill="none" stroke="black" d="M139.62,-149.44C126.89,-138.43 107.52,-121.7 92.77,-108.95"/>
<polygon fill="black" stroke="black" points="94.98,-106.23 85.13,-102.34 90.4,-111.53 94.98,-106.23"/>
</g>
<!-- 6 -->
<g id="node3" class="node">
<title>6</title>
<ellipse fill="none" stroke="red" cx="234" cy="-90" rx="18" ry="18"/>
<text text-anchor="middle" x="234" y="-86.5" font-family="Times,serif" font-size="15.00" fill="blue">6</text>
</g>
<!-- 4&#45;&gt;6 -->
<g id="edge2" class="edge">
<title>4&#45;&gt;6</title>
<path fill="none" stroke="black" d="M166.38,-149.44C179.11,-138.43 198.48,-121.7 213.23,-108.95"/>
<polygon fill="black" stroke="black" points="215.6,-111.53 220.87,-102.34 211.02,-106.23 215.6,-111.53"/>
</g>
<!-- 1 -->
<g id="node4" class="node">
<title>1</title>
<ellipse fill="none" stroke="red" cx="18" cy="-18" rx="18" ry="18"/>
<text text-anchor="middle" x="18" y="-14.5" font-family="Times,serif" font-size="15.00" fill="blue">1</text>
</g>
<!-- 2&#45;&gt;1 -->
<g id="edge3" class="edge">
<title>2&#45;&gt;1</title>
<path fill="none" stroke="black" d="M61.33,-75.17C53.79,-65.39 43.52,-52.08 34.87,-40.87"/>
<polygon fill="black" stroke="black" points="37.53,-38.58 28.65,-32.8 31.98,-42.86 37.53,-38.58"/>
</g>
<!-- m2 -->
<!-- 2&#45;&gt;m2 -->
<!-- 3 -->
<g id="node6" class="node">
<title>3</title>
<ellipse fill="none" stroke="red" cx="126" cy="-18" rx="18" ry="18"/>
<text text-anchor="middle" x="126" y="-14.5" font-family="Times,serif" font-size="15.00" fill="blue">3</text>
</g>
<!-- 2&#45;&gt;3 -->
<g id="edge5" class="edge">
<title>2&#45;&gt;3</title>
<path fill="none" stroke="black" d="M82.67,-75.17C90.21,-65.39 100.48,-52.08 109.13,-40.87"/>
<polygon fill="black" stroke="black" points="112.02,-42.86 115.35,-32.8 106.47,-38.58 112.02,-42.86"/>
</g>
<!-- 5 -->
<g id="node7" class="node">
<title>5</title>
<ellipse fill="none" stroke="red" cx="180" cy="-18" rx="18" ry="18"/>
<text text-anchor="middle" x="180" y="-14.5" font-family="Times,serif" font-size="15.00" fill="blue">5</text>
</g>
<!-- 6&#45;&gt;5 -->
<g id="edge6" class="edge">
<title>6&#45;&gt;5</title>
<path fill="none" stroke="black" d="M223.33,-75.17C215.79,-65.39 205.52,-52.08 196.87,-40.87"/>
<polygon fill="black" stroke="black" points="199.53,-38.58 190.65,-32.8 193.98,-42.86 199.53,-38.58"/>
</g>
<!-- m3 -->
<!-- 6&#45;&gt;m3 -->
<!-- m4 -->
<!-- 6&#45;&gt;m4 -->
</g>
</svg>
